# xmcd
#
# Track frame offsets:
#	150
#	15852
#	37257
#	54937
#	71882
#	86555
#	101737
#	120525
#	137320
#	150417
#	167010
#	181730
#	200460
#	217905
#
# Disc length: 3052 seconds
#
# Revision: 3
# Processed by: cddbd v1.5.2PL0 Copyright (c) Steve Scherf et al.
# Submitted via: EZCDAudioConverter 2.2.2.1
#
DISCID=ae0bea0e
DTITLE=Vários - Mixto Quente - Forró do Bom
DYEAR=1997
DGENRE=Forró
TTITLE0=Banda Magníficos - Me Usa
TTITLE1=Banda Brucelose - Doce Pecado
TTITLE2=Banana Bronzeada Nossa - Nossa Canção
TTITLE3=Banda Forró Maior - Caminhoneiro Solitário
TTITLE4=Banda Mexe Ville - Amanhecer No Sertão
TTITLE5=Banda Limão Com Mel - Meu Neguinho
TTITLE6=Banda Cacau Com Leite - Paixão
TTITLE7=Banda Flor da Terra - Abraçando Você
TTITLE8=Banda Raio da Silibrina - Não Quero Mais Você
TTITLE9=Noda de Caju - Meu Vício
TTITLE10=Banda Baby Som - Som Quente e Arrochado
TTITLE11=Banda Metrópole - Tudo Em Minha Vida
TTITLE12=Anjos and Demônios - Canibal
TTITLE13=Pipoquinha de Normandia - Língua and Dedo
EXTD=
EXTT0=
EXTT1=
EXTT2=
EXTT3=
EXTT4=
EXTT5=
EXTT6=
EXTT7=
EXTT8=
EXTT9=
EXTT10=
EXTT11=
EXTT12=
EXTT13=
PLAYORDER=
